<svg id="Layer_1" height="512" viewBox="0 0 512 512" width="512" xmlns="http://www.w3.org/2000/svg" data-name="Layer 1"><path d="m16.62 319.08-.18.02a47.158 47.158 0 0 0 46.75 40.58h385.62a47.144 47.144 0 0 0 46.75-40.6z" fill="#4689d3"/><path d="m418.52 249.37h-75.69a24.265 24.265 0 1 0 0 48.53v.18h75.69v-.18a24.265 24.265 0 1 0 0-48.53z" fill="#edb740"/><path d="m293.93 152.32h-75.86a24.261 24.261 0 0 0 -1.73 48.46l77.5.07h.09a24.265 24.265 0 0 0 0-48.53z" fill="#edb740"/><path d="m293.84 249.37h-75.68a24.265 24.265 0 1 0 0 48.53v.18h75.68v-.18a24.265 24.265 0 1 0 0-48.53z" fill="#d39f37"/><path d="m169.17 249.37h-75.69a24.265 24.265 0 1 0 0 48.53v.18h75.69v-.18a24.265 24.265 0 1 0 0-48.53z" fill="#edb740"/><path d="m481.38 298h-450.76a14.664 14.664 0 0 0 -14.62 14.63 46.877 46.877 0 0 0 .44 6.42l.18-.05h478.94a45.948 45.948 0 0 0 .44-6.43 14.589 14.589 0 0 0 -14.62-14.57z" fill="#5fa8ed"/><path d="m356.84 201h-75.69a24.2 24.2 0 0 0 -17.21 7.035 23.615 23.615 0 0 0 -7.13 16.927 24.112 24.112 0 0 0 24.34 24.038h75.69a24.143 24.143 0 0 0 17.22-6.925 23.745 23.745 0 0 0 7.13-16.983 24.161 24.161 0 0 0 -24.35-24.092z" fill="#efb245"/><path d="m231.83 201h-75.69a24.092 24.092 0 0 0 -1.8 48.134l77.49-.134a24.1 24.1 0 0 0 17.21-6.925 23.745 23.745 0 0 0 7.13-16.983 24.158 24.158 0 0 0 -24.34-24.092z" fill="#efb245"/><path d="m46.44 319.22.18-.22h-30l-.18.22a47.333 47.333 0 0 0 46.75 40.78h30a47.333 47.333 0 0 1 -46.75-40.78z" fill="#3771a5"/><path d="m50.28 302.31a14.612 14.612 0 0 1 10.34-4.31h-30a14.664 14.664 0 0 0 -14.62 14.63 46.877 46.877 0 0 0 .44 6.42l.18-.05h29.815a46.783 46.783 0 0 1 -.435-6.37 14.539 14.539 0 0 1 4.28-10.32z" fill="#558ebc"/><path d="m223.81 176.58a24.533 24.533 0 0 1 24.26-24.58h-30a24.445 24.445 0 0 0 -1.73 48.815h30a24.29 24.29 0 0 1 -22.53-24.235z" fill="#c49639"/><path d="m98.89 273.63a24.833 24.833 0 0 1 24.59-24.63h-30a24.451 24.451 0 0 0 -.48 48.9v.1h30v-.1a24.4 24.4 0 0 1 -24.11-24.27z" fill="#ba8f38"/><path d="m154.34 249.134 29.47-.051a24.089 24.089 0 0 1 2.33-48.083h-30a24.092 24.092 0 0 0 -1.8 48.134z" fill="#c18e3d"/></svg>